<?xml version="1.0" encoding="UTF-8"?>
<svg version="1.1" xmlns="http://www.w3.org/2000/svg" width="512" height="512">
<path d="M0 0 C1.89564128 -0.00874829 1.89564128 -0.00874829 3.82957834 -0.01767331 C5.22955399 -0.01404022 6.62952916 -0.01021586 8.02950382 -0.00622082 C9.51859782 -0.00924126 11.00769028 -0.0131302 12.49677998 -0.01781338 C16.58989438 -0.02811596 20.68292141 -0.02590583 24.77604306 -0.02163279 C29.18989044 -0.01916967 33.60371655 -0.02817455 38.01755619 -0.03567028 C46.66502973 -0.04843067 55.31247223 -0.05020932 63.9599536 -0.04787002 C70.98734242 -0.04608826 78.0147218 -0.04783343 85.04210949 -0.05209446 C86.54135292 -0.05298724 86.54135292 -0.05298724 88.0708841 -0.05389806 C90.10123904 -0.05510979 92.13159399 -0.05632392 94.16194893 -0.05754044 C113.20974186 -0.06842105 132.2575171 -0.06625096 151.30531103 -0.06015559 C168.73795066 -0.05498546 186.17053442 -0.06624349 203.603163 -0.08525381 C221.49597191 -0.10461665 239.38875437 -0.11289098 257.28157383 -0.10913056 C267.32985717 -0.10721622 277.37809295 -0.10972878 287.42636776 -0.1238451 C295.98010454 -0.13574004 304.53376449 -0.137185 313.08750229 -0.12505493 C317.45277971 -0.11915308 321.81791646 -0.1181028 326.18318462 -0.13005733 C330.17845254 -0.14087159 334.17346158 -0.13786623 338.16871715 -0.12379565 C339.61482894 -0.12113639 341.06096073 -0.12355365 342.50705295 -0.13153151 C344.47183258 -0.14161942 346.43668503 -0.13143548 348.40145874 -0.12025452 C349.49310237 -0.12030953 350.584746 -0.12036455 351.70946974 -0.12042123 C355.39328789 0.33176287 357.66736012 1.19952657 360.76364994 3.25447559 C363.51709469 7.40387313 364.13897528 10.68975067 364.14117336 15.61387348 C364.1489966 16.87962538 364.15681985 18.14537728 364.16488016 19.4494853 C364.15839458 20.8465195 364.15162464 22.2435524 364.14460087 23.64058399 C364.14805838 25.13054259 364.15282357 26.62049862 364.1587826 28.11044931 C364.1713095 32.20134736 364.16511457 36.29203552 364.15582395 40.38293433 C364.14904071 44.79608729 364.15951108 49.20920397 364.16776371 53.62234974 C364.18111098 62.26636133 364.17821887 70.91029482 364.16952579 79.55430949 C364.16275357 86.57881698 364.16183052 93.60330257 364.16509724 100.62781239 C364.16555694 101.62717252 364.16601663 102.62653265 364.16649026 103.65617642 C364.16744943 105.68628983 364.16842207 107.71640324 364.16940804 109.74651664 C364.17796484 128.78764873 364.16812324 147.82873751 364.15200694 166.8698625 C364.1386035 183.21179298 364.14093151 199.55365954 364.15476322 215.89558887 C364.17081389 234.86809323 364.17714084 253.84055962 364.16792643 272.81306982 C364.16697077 274.83575947 364.16602766 276.85844914 364.16509724 278.8811388 C364.16463441 279.87636841 364.16417158 280.87159802 364.16369473 281.8969861 C364.16110331 288.91391955 364.16547913 295.93082895 364.1725359 302.94775867 C364.18094539 311.49781687 364.17868234 320.04779243 364.16269366 328.59784114 C364.15480354 332.96109655 364.15173197 337.32421411 364.16164112 341.68746853 C364.17057319 345.68085235 364.16567983 349.67397041 364.14970846 353.66733009 C364.14635434 355.11273651 364.14806892 356.55816534 364.15533583 358.00355738 C364.16445267 359.967382 364.15331109 361.93126943 364.14117336 363.89507771 C364.14044278 365.53173004 364.14044278 365.53173004 364.13969743 367.20144606 C363.58983414 371.66563986 362.10475329 374.8756114 358.96328634 378.10553122 C356.03914566 379.63290864 353.86619001 379.63290899 350.56946754 379.63758564 C349.28966406 379.64664228 348.00986058 379.65569892 346.69127518 379.66503 C345.26801647 379.65992548 343.84475877 379.65453338 342.42150211 379.64888477 C340.9119318 379.653772 339.40236522 379.65996102 337.89280504 379.66734266 C333.73846351 379.68378673 329.5843112 379.68141523 325.42994845 379.67596769 C320.95201148 379.673303 316.47412559 379.6878187 311.99620914 379.70006275 C303.2212572 379.72114235 294.4463713 379.72565617 285.67139704 379.72387487 C278.54099621 379.72256857 271.41061602 379.72636462 264.28021908 379.73379993 C262.2283414 379.73589907 260.17646372 379.73799667 258.12458605 379.74009275 C257.10339457 379.74113628 256.08220309 379.74217981 255.03006642 379.74325496 C235.70618188 379.76216736 216.38233529 379.761104 197.05844533 379.75428563 C179.36960153 379.7487088 161.68090251 379.76953981 143.99209256 379.8026461 C125.84054009 379.8363555 107.68905703 379.85155491 89.53747267 379.84692907 C79.34217725 379.84468168 69.14701567 379.84996701 58.95174694 379.87482166 C50.27275184 379.89579924 41.59396396 379.89946206 32.91496045 379.88052207 C28.4849165 379.87134246 24.05525928 379.87028885 19.62524509 379.89087772 C15.57185573 379.90950825 11.51917194 379.90517433 7.46581011 379.88233191 C5.99747799 379.87812597 4.5290926 379.8824128 3.06081665 379.89592785 C1.06850005 379.91302134 -0.92402101 379.896435 -2.91632652 379.87809467 C-4.02408076 379.87836706 -5.13183499 379.87863944 -6.27315754 379.87892008 C-10.17729786 379.05618619 -11.67980743 377.23094644 -14.23635006 374.25447559 C-14.56635006 373.92447559 -14.89635006 373.59447559 -15.23635006 373.25447559 C-15.33768521 371.31492598 -15.36743805 369.37162918 -15.37057114 367.42943668 C-15.37502898 366.15560635 -15.37948682 364.88177601 -15.38407975 363.56934476 C-15.38399044 362.13726027 -15.38380056 360.70517578 -15.38352108 359.27309132 C-15.38681773 357.76611382 -15.39054287 356.25913721 -15.39466256 354.75216174 C-15.4047135 350.59109682 -15.40840431 346.43004632 -15.41105187 342.26897097 C-15.41494582 337.78895386 -15.4245248 333.30894827 -15.43326473 328.82893848 C-15.45305554 317.99942871 -15.46309893 307.16991796 -15.47199252 296.34039462 C-15.47637138 291.24548794 -15.48173925 286.15058231 -15.48698139 281.05567646 C-15.50399673 264.12711395 -15.51849182 247.19855209 -15.52573013 230.26998234 C-15.52764015 225.87386289 -15.52956047 221.47774346 -15.53151608 217.08162403 C-15.53199982 215.98893608 -15.53248356 214.89624813 -15.53298195 213.77044842 C-15.54128562 196.06204154 -15.56662685 178.35370214 -15.59909675 160.64532474 C-15.63213339 142.48031823 -15.65017584 124.31534605 -15.65337437 106.15030932 C-15.65554269 95.94491981 -15.66433811 85.73962868 -15.68983555 75.53426838 C-15.71149627 66.84425471 -15.71961588 58.1543633 -15.70986877 49.4643257 C-15.7053105 45.02827003 -15.7072984 40.59246686 -15.72663021 36.1564455 C-15.74416648 32.09748473 -15.74334245 28.03896242 -15.72773292 23.97999761 C-15.72534224 22.50955267 -15.72975552 21.03907813 -15.74156157 19.56867865 C-15.75659244 17.57346582 -15.74466594 15.57810397 -15.73133469 13.58287907 C-15.73231149 12.47349861 -15.7332883 11.36411816 -15.73429471 10.22112012 C-15.10765265 6.48772478 -13.92953169 4.8861712 -11.23635006 2.25447559 C-7.47828029 0.18997366 -4.24477741 0.0033709 0 0 Z " fill="#000000" transform="translate(15.236350059509277,132.7455244064331)"/>
<path d="M0 0 C1.27980348 -0.00905664 2.55960696 -0.01811328 3.87819237 -0.02744436 C5.30145108 -0.02233984 6.72470878 -0.01694774 8.14796543 -0.01129913 C9.65753575 -0.01618636 11.16710232 -0.02237538 12.6766625 -0.02975702 C16.83100403 -0.04620109 20.98515635 -0.04382959 25.1395191 -0.03838205 C29.61745606 -0.03571736 34.09534195 -0.05023306 38.5732584 -0.06247711 C47.34821034 -0.08355671 56.12309624 -0.08807053 64.89807051 -0.08628923 C72.02847134 -0.08498293 79.15885152 -0.08877898 86.28924847 -0.09621429 C88.34112614 -0.09831343 90.39300382 -0.10041103 92.4448815 -0.10250711 C93.97666871 -0.10407241 93.97666871 -0.10407241 95.53940112 -0.10566932 C114.86328566 -0.12458172 134.18713226 -0.12351836 153.51102222 -0.11669999 C171.19986601 -0.11112316 188.88856503 -0.13195417 206.57737499 -0.16506046 C224.72892745 -0.19876986 242.88041051 -0.21396927 261.03199488 -0.20934343 C271.22729029 -0.20709604 281.42245188 -0.21238137 291.6177206 -0.23723602 C300.2967157 -0.2582136 308.97550359 -0.26187642 317.65450709 -0.24293643 C322.08455104 -0.23375682 326.51420827 -0.23270321 330.94422245 -0.25329208 C334.99761182 -0.27192261 339.0502956 -0.26758869 343.10365743 -0.24474627 C344.57198956 -0.24054033 346.04037494 -0.24482716 347.50865089 -0.25834221 C349.50096749 -0.2754357 351.49348856 -0.25884936 353.48579407 -0.24050903 C355.14742542 -0.24091761 355.14742542 -0.24091761 356.84262508 -0.24133444 C360.7467654 0.58139945 362.24927498 2.4066392 364.8058176 5.38311005 C365.1358176 5.71311005 365.4658176 6.04311005 365.8058176 6.38311005 C365.90715275 8.32265966 365.9369056 10.26595646 365.94003868 12.20814896 C365.94449652 13.48197929 365.94895437 14.75580963 365.9535473 16.06824088 C365.95345799 17.50032537 365.95326811 18.93240986 365.95298862 20.36449432 C365.95628527 21.87147182 365.96001041 23.37844843 365.9641301 24.8854239 C365.97418104 29.04648882 365.97787185 33.20753932 365.98051941 37.36861467 C365.98441336 41.84863178 365.99399234 46.32863737 366.00273228 50.80864716 C366.02252309 61.63815693 366.03256647 72.46766768 366.04146007 83.29719102 C366.04583892 88.3920977 366.05120679 93.48700333 366.05644894 98.58190918 C366.07346427 115.51047169 366.08795936 132.43903355 366.09519768 149.3676033 C366.0971077 153.76372275 366.09902801 158.15984218 366.10098362 162.55596161 C366.10146736 163.64864956 366.1019511 164.74133751 366.1024495 165.86713722 C366.11075316 183.5755441 366.1360944 201.2838835 366.1685643 218.9922609 C366.20160093 237.15726741 366.21964338 255.32223959 366.22284192 273.48727632 C366.22501023 283.69266583 366.23380566 293.89795696 366.25930309 304.10331726 C366.28096382 312.79333093 366.28908342 321.48322234 366.27933631 330.17325994 C366.27477805 334.60931561 366.27676595 339.04511878 366.29609776 343.48114014 C366.31363402 347.54010091 366.31281 351.59862322 366.29720046 355.65758803 C366.29480978 357.12803297 366.29922307 358.59850751 366.31102911 360.06890699 C366.32605998 362.06411982 366.31413348 364.05948167 366.30080223 366.05470657 C366.30177904 367.16408703 366.30275585 368.27346748 366.30376226 369.41646552 C365.68892611 373.07952381 364.35761174 374.73429679 361.8058176 377.38311005 C357.39088625 380.00501314 352.69096217 379.6722751 347.70449924 379.65776825 C346.34260723 379.66543465 346.34260723 379.66543465 344.95320225 379.67325592 C341.95739206 379.68713522 338.96181234 379.68619644 335.96597385 379.6838913 C333.87998971 379.68777902 331.79400636 379.69211385 329.70802402 379.69687653 C325.33768236 379.70433508 320.96742148 379.70404999 316.59707737 379.69878387 C311.00051616 379.69298854 305.40428582 379.70992369 299.80777931 379.73312855 C295.50033228 379.74786987 291.19296488 379.74873705 286.88549709 379.74561882 C284.82225419 379.74613179 282.7590068 379.75136495 280.69578838 379.76143074 C277.80915114 379.77378593 274.92315766 379.76700891 272.03653049 379.7554245 C271.18698795 379.76306824 270.33744541 379.77071198 269.46215916 379.77858734 C264.56101313 379.73517797 260.89205705 379.37937993 256.8058176 376.38311005 C253.60696161 370.57819089 253.38178448 365.62508525 253.43400669 359.08400726 C253.43018213 358.06066603 253.42635756 357.03732479 253.4224171 355.98297322 C253.41314734 352.56136224 253.42511411 349.1401575 253.43692112 345.71855927 C253.43445276 343.26261477 253.43061399 340.80667132 253.42550755 338.3507309 C253.41717296 333.06606238 253.41766837 327.78150597 253.42569256 322.49684525 C253.4369372 314.85074231 253.42787196 307.20476286 253.41313075 299.55867065 C253.38937698 287.14517211 253.37599589 274.73168882 253.37197971 262.31816864 C253.37173484 261.57578501 253.37148998 260.83340138 253.37123769 260.06852128 C253.3686906 251.78198579 253.3681257 243.49545148 253.3691721 235.20891571 C253.36950515 232.20171356 253.36979053 229.19451142 253.37002659 226.18730927 C253.37008938 225.44522645 253.37015216 224.70314364 253.37021685 223.93857346 C253.3708215 211.56804867 253.35594981 199.19759437 253.32919353 186.82709897 C253.3133832 179.1991102 253.31113571 171.57134892 253.32632755 163.94335772 C253.33690087 158.10250339 253.32711537 152.26179765 253.30976963 146.42095566 C253.30603303 144.02356531 253.30918119 141.6261531 253.31964016 139.22878265 C253.33294679 135.96160168 253.32185558 132.69538698 253.30461216 129.42824554 C253.31441894 128.47484752 253.32422571 127.52144949 253.33432966 126.53916061 C253.28776916 122.28704121 253.18860062 119.99866371 250.89964294 116.31778908 C248.01220157 113.64981474 246.49825806 113.25805073 242.67493248 113.25282478 C241.36916133 113.24738826 241.36916133 113.24738826 240.03701097 113.24184191 C238.59380614 113.24344429 238.59380614 113.24344429 237.12144566 113.24507904 C236.10378768 113.24225776 235.0861297 113.23943648 234.0376336 113.23652971 C230.60529218 113.22815325 227.17298288 113.22684285 223.74063206 113.2253952 C221.28867088 113.22072919 218.83671057 113.21558598 216.38475132 113.20999908 C211.09294578 113.19870048 205.80114657 113.19022402 200.50933361 113.18387985 C192.14379999 113.17356092 183.77830619 113.15299851 175.41279697 113.13076019 C172.55144705 113.12328003 169.69009695 113.11586634 166.8287468 113.10847282 C166.11360339 113.10662226 165.39845998 113.10477169 164.66164557 113.10286505 C156.51707984 113.08192898 148.3725097 113.06310581 140.22793674 113.04521942 C139.11090697 113.04276215 139.11090697 113.04276215 137.97131094 113.04025523 C125.90963519 113.01398332 113.84795638 112.99533336 101.78626416 112.97862752 C89.40458517 112.96120149 77.02296621 112.93234935 64.64133519 112.89373815 C57.00375809 112.87034718 49.36627888 112.85634439 41.72866567 112.85441051 C35.8728398 112.85205012 30.01712627 112.83417224 24.16134548 112.81054115 C21.75997112 112.80333895 19.35857518 112.80125163 16.95719242 112.80464363 C13.67961922 112.80853384 10.40261671 112.79409745 7.12510777 112.77510834 C5.69863335 112.78340288 5.69863335 112.78340288 4.24334127 112.79186499 C-1.32240802 112.73618032 -5.28799151 112.0859376 -10.1941824 109.38311005 C-13.71414705 104.5783552 -13.62333694 99.88931948 -13.58236599 94.1682663 C-13.58762295 93.26019226 -13.59287991 92.35211823 -13.59829617 91.41652679 C-13.61145953 88.4260443 -13.60277097 85.4360976 -13.5926199 82.44561005 C-13.59464168 80.36105497 -13.59755399 78.27650059 -13.60131741 76.19194794 C-13.6057358 71.8275401 -13.5993252 67.46331672 -13.58529568 63.09893036 C-13.56820421 57.51022407 -13.57804797 51.92195002 -13.59601307 46.33325958 C-13.60686391 42.03009038 -13.60339856 37.72702332 -13.59562969 33.42385101 C-13.59363129 31.36340534 -13.5960743 29.30295034 -13.60306835 27.24251556 C-13.61070411 24.36074579 -13.59904863 21.47967187 -13.58236599 18.5979538 C-13.58843868 17.7499823 -13.59451138 16.9020108 -13.60076809 16.0283432 C-13.5479077 11.08872836 -12.99731336 7.62510788 -10.1941824 3.38311005 C-6.89195328 0.23717848 -4.49132263 0.00637128 0 0 Z " fill="#000000" transform="translate(146.19418239593506,-0.38311004638671875)"/>
</svg>
